<?xml version="1.0" encoding="UTF-8" standalone="no"?>
<svg width="16px" height="14px" viewBox="0 0 16 14" version="1.1" xmlns="http://www.w3.org/2000/svg" xmlns:xlink="http://www.w3.org/1999/xlink">
    <!-- Generator: sketchtool 3.6.1 (26313) - http://www.bohemiancoding.com/sketch -->
    <title>ico-warning</title>
    <desc>Created with sketchtool.</desc>
    <defs></defs>
    <g id="Final-Edition" stroke="none" stroke-width="1" fill="none" fill-rule="evenodd">
        <g id="WEINI-MAIN-UI-History" transform="translate(-357.000000, -467.000000)">
            <g id="Group-8-Copy-2" transform="translate(335.000000, 450.000000)">
                <g id="Group-9" transform="translate(22.000000, 17.000000)">
                    <g id="ico-warning">
                        <path d="M7.75488281,1.7421875 L3.31054688,10.7841797 L5.65722656,12.0341797 L12.1679688,12.0341797 L12.5917969,9.93652344 L9.84179688,3.58886719 L7.75488281,1.7421875 Z" id="Path-5928" fill="#FFFFFF"></path>
                        <g id="warning" transform="translate(0.475098, 0.000000)" fill="#FFD22B">
                            <path d="M14.9775101,11.9707085 L8.49801818,0.591456524 C8.29239904,0.23035297 7.9450479,0.0136497862 7.56885774,0.0136497862 C7.19266758,0.0136497862 6.84526513,0.229275355 6.6396973,0.590378909 L0.16015407,11.9686046 C-0.0440282576,12.327245 -0.0535215299,12.7389965 0.134855782,13.062948 C0.323181779,13.3868995 0.682027473,13.5845648 1.09470259,13.5845648 L14.0429616,13.5845648 C14.4556367,13.5845648 14.8144824,13.3868995 15.0028084,13.062948 C15.1911857,12.7389965 15.1817437,12.329349 14.9775101,11.9707085 L14.9775101,11.9707085 Z M7.52611236,3.65511511 C8.02207169,3.65511511 8.42412461,4.05716802 8.42412461,4.55312735 L8.42412461,7.78597144 C8.42412461,8.28193078 8.02207169,8.68398369 7.52611236,8.68398369 C7.03015302,8.68398369 6.62810011,8.28193078 6.62810011,7.78597144 L6.62810011,4.55312735 C6.62810011,4.05716802 7.03015302,3.65511511 7.52611236,3.65511511 L7.52611236,3.65511511 Z M7.56885774,9.69878885 C8.06481708,9.69878885 8.46686999,10.1008418 8.46686999,10.5968011 C8.46686999,11.0927604 8.06481708,11.4948133 7.56885774,11.4948133 C7.07289841,11.4948133 6.67084549,11.0927604 6.67084549,10.5968011 C6.67084549,10.1008418 7.07289841,9.69878885 7.56885774,9.69878885 L7.56885774,9.69878885 Z" id="Shape"></path>
                        </g>
                    </g>
                </g>
            </g>
        </g>
    </g>
</svg>