<?xml version="1.0" encoding="UTF-8" standalone="no"?>
<svg width="17px" height="16px" viewBox="0 0 17 16" version="1.1" xmlns="http://www.w3.org/2000/svg" xmlns:xlink="http://www.w3.org/1999/xlink">
    <!-- Generator: sketchtool 3.6.1 (26313) - http://www.bohemiancoding.com/sketch -->
    <title>ico-failed</title>
    <desc>Created with sketchtool.</desc>
    <defs></defs>
    <g id="Final-Edition" stroke="none" stroke-width="1" fill="none" fill-rule="evenodd">
        <g id="WEINI-MAIN-UI-History" transform="translate(-357.000000, -526.000000)">
            <g id="Group-8-Copy" transform="translate(335.000000, 510.000000)">
                <g id="ico-failed" transform="translate(22.000000, 16.000000)">
                    <circle id="Oval-2950" fill="#FFFFFF" cx="8.47509766" cy="8" r="6.5"></circle>
                    <g id="exclamation-mark" transform="translate(0.475098, 0.000000)" fill="#FF1F1F">
                        <path d="M7.83357188,0.00690943496 C7.83149905,0.00690943496 7.82873528,0.00725490671 7.82666245,0.00725490671 C7.82424415,0.00725490671 7.82217132,0.00690943496 7.81975301,0.00690943496 C3.50135617,0.00690943496 0,3.50792013 0,7.82700792 C0,12.1454048 3.50135617,15.6467609 7.81975301,15.6467609 L7.82666245,15.6467609 L7.83357188,15.6467609 C12.1519687,15.6467609 15.6533249,12.1454048 15.6533249,7.82700792 C15.6536704,3.50792013 12.1523142,0.00690943496 7.83357188,0.00690943496 L7.83357188,0.00690943496 Z M7.83357188,13.408104 C7.83149905,13.408104 7.82873528,13.4077585 7.82666245,13.4077585 C7.82424415,13.4077585 7.82217132,13.408104 7.81975301,13.408104 C7.11291782,13.408104 6.53978019,12.8353119 6.53978019,12.1281312 C6.53978019,11.4216415 7.11291782,10.8488493 7.81975301,10.8488493 L7.82666245,10.8488493 L7.83357188,10.8488493 C8.54006161,10.8488493 9.11389018,11.4216415 9.11389018,12.1281312 C9.11389018,12.8349664 8.54109802,13.408104 7.83357188,13.408104 L7.83357188,13.408104 Z M9.66906328,3.65440015 C9.58545912,4.9316092 9.00161186,8.73007107 9.00161186,8.73007107 C9.00161186,9.37057569 8.47684028,9.88947426 7.83633566,9.88947426 L7.82631698,9.88947426 L7.8162983,9.88947426 C7.17613915,9.88947426 6.65136756,9.36988475 6.65136756,8.73007107 C6.65136756,8.73007107 6.06786578,4.9316092 5.98426162,3.65440015 C5.94280501,3.01493194 6.43268395,1.82754555 7.81664377,1.82754555 C7.82009849,1.82754555 7.8235532,1.82789102 7.82666245,1.82789102 C7.8297717,1.82789102 7.83322641,1.82754555 7.83668113,1.82754555 C9.22029548,1.82754555 9.71086536,3.01493194 9.66906328,3.65440015 L9.66906328,3.65440015 Z" id="Shape"></path>
                    </g>
                </g>
            </g>
        </g>
    </g>
</svg>